<svg width="85.988" height="85.987" xmlns="http://www.w3.org/2000/svg">

 <g>
  <title>background</title>
  <rect fill="none" id="canvas_background" height="87.987" width="87.988" y="-1" x="-1"/>
 </g>
 <g>
  <title>Layer 1</title>
  <g id="svg_1">
   <path id="svg_2" fill="#ba0000" d="m77.993,30.884c-2.692,0 -4.878,2.185 -4.878,4.868c0,2.685 2.186,4.867 4.878,4.867c2.683,0 4.867,-2.183 4.867,-4.867c0,-2.683 -2.185,-4.868 -4.867,-4.868zm-69.988,0c-2.692,0 -4.878,2.185 -4.878,4.868c0,2.685 2.186,4.867 4.878,4.867c2.685,0 4.87,-2.183 4.87,-4.867c0,-2.683 -2.185,-4.868 -4.87,-4.868zm55.499,-8.854c-3.997,0 -7.239,3.25 -7.239,7.25c0,3.992 3.242,7.236 7.239,7.236c3.998,0 7.25,-3.244 7.25,-7.236c0,-3.996 -3.252,-7.25 -7.25,-7.25zm22.484,44.058l-8.254,0l0,-15.192c0,-2.61 -0.767,-5.033 -1.999,-7.146c0.726,-0.212 1.471,-0.363 2.258,-0.363c4.401,0 7.995,3.594 7.995,8.006l0,14.695zm-63.505,-44.058c-4,0 -7.25,3.25 -7.25,7.25c0,3.992 3.25,7.236 7.25,7.236c3.987,0 7.237,-3.244 7.237,-7.236c0,-3.996 -3.249,-7.25 -7.237,-7.25zm-14.478,21.357c0.787,0 1.522,0.15 2.25,0.363c-1.245,2.113 -1.999,4.536 -1.999,7.146l0,15.192l-8.256,0l0,-14.695c0,-4.413 3.596,-8.006 8.005,-8.006zm34.981,-35.832c-5.9,0 -10.71,4.805 -10.71,10.711c0,5.905 4.805,10.716 10.71,10.716c5.906,0 10.717,-4.811 10.717,-10.716c0.005,-5.907 -4.811,-10.711 -10.717,-10.711zm32.097,64.187l-12.645,0l0,-23.115c0,-3.179 -0.839,-6.136 -2.195,-8.787c1.035,-0.306 2.123,-0.523 3.262,-0.523c6.38,0 11.578,5.188 11.578,11.579l0,20.846zm-51.546,-23.115l0,23.115l-12.629,0l0,-20.846c0,-6.385 5.191,-11.579 11.581,-11.579c1.139,0 2.216,0.217 3.249,0.523c-1.357,2.651 -2.201,5.608 -2.201,8.787zm2.651,29.806l33.598,0l0,-29.806c0,-9.264 -7.539,-16.798 -16.801,-16.798c-9.269,0 -16.797,7.534 -16.797,16.798l0,29.806z"/>
  </g>
  <g id="svg_3"/>
  <g id="svg_4"/>
  <g id="svg_5"/>
  <g id="svg_6"/>
  <g id="svg_7"/>
  <g id="svg_8"/>
  <g id="svg_9"/>
  <g id="svg_10"/>
  <g id="svg_11"/>
  <g id="svg_12"/>
  <g id="svg_13"/>
  <g id="svg_14"/>
  <g id="svg_15"/>
  <g id="svg_16"/>
  <g id="svg_17"/>
 </g>
</svg>